<?xml version="1.0" encoding="UTF-8" standalone="no"?>
<!DOCTYPE svg PUBLIC "-//W3C//DTD SVG 1.1//EN" "http://www.w3.org/Graphics/SVG/1.1/DTD/svg11.dtd">
<!-- Created with Vectornator (http://vectornator.io/) -->
<svg height="100%" stroke-miterlimit="10" style="fill-rule:nonzero;clip-rule:evenodd;stroke-linecap:round;stroke-linejoin:round;" version="1.1" viewBox="0 0 485 78" width="100%" xml:space="preserve" xmlns="http://www.w3.org/2000/svg" xmlns:vectornator="http://vectornator.io" xmlns:xlink="http://www.w3.org/1999/xlink">
<defs/>
<clipPath id="ArtboardFrame">
<rect height="78" width="485" x="0" y="0"/>
</clipPath>
<g clip-path="url(#ArtboardFrame)" id="35fa3215-a46c-2dc7-0ca7-44149903aade" vectornator:layerName="35fa3215-a46c-2dc7-0ca7-44149903aade">
<path d="M29.4716 61.0706L29.4716 61.0706C21.1575 61.0706 14.1973 58.1628 8.59094 52.3472L8.59094 52.3472L8.59094 52.3472C2.98463 46.5316 0.18148 39.272 0.18148 30.5684L0.18148 30.5684L0.18148 30.5684C0.18148 22.0231 2.98463 14.8228 8.59094 8.96766L8.59094 8.96766L8.59094 8.96766C14.1973 3.15207 21.1575 0.244272 29.4716 0.244272L29.4716 0.244272L29.4716 0.244272C37.8238 0.244272 44.9938 2.95426 50.9815 8.37423L50.9815 8.37423L43.2013 17.2163L43.2013 17.2163C39.1968 13.9722 34.6202 12.3502 29.4716 12.3502L29.4716 12.3502L29.4716 12.3502C24.2085 12.3898 19.9561 14.1107 16.7144 17.513L16.7144 17.513L16.7144 17.513C13.5108 20.8758 11.909 25.188 11.909 30.4498L11.909 30.4498L11.909 30.4498C11.909 36.1071 13.5298 40.5974 16.7716 43.9206L16.7716 43.9206L16.7716 43.9206C20.0133 47.2438 24.2657 48.9054 29.5288 48.9054L29.5288 48.9054L29.5288 48.9054C33.7621 48.9054 37.0039 48.0548 39.254 46.3536L39.254 46.3536L39.254 35.9093L31.4738 35.9686L31.4738 24.5748L50.9815 24.5748L50.9815 53L50.9815 53C45.032 58.3804 37.862 61.0706 29.4716 61.0706L29.4716 61.0706ZM71.9766 20.4802L71.9766 24.9902L71.9766 24.9902C74.7988 22.0231 78.2122 20.5395 82.2167 20.5395L82.2167 20.5395L82.2167 20.5395C83.4752 20.5395 84.6766 20.6384 85.8207 20.8362L85.8207 20.8362L84.1045 32.052L84.1045 32.052C82.8459 30.8652 81.0344 30.2322 78.6698 30.153L78.6698 30.153L78.6698 30.153C76.0001 30.3508 73.7691 32.3487 71.9766 36.1467L71.9766 36.1467L71.9766 61.0706L61.05 61.0706L61.05 21.7264L71.9766 20.4802ZM110.706 61.486L110.706 61.486C105.023 61.486 100.275 59.5079 96.4613 55.5517L96.4613 55.5517L96.4613 55.5517C92.6856 51.5956 90.7977 46.6899 90.7977 40.8347L90.7977 40.8347L90.7977 40.8347C90.7977 34.94 92.6856 30.0146 96.4613 26.0584L96.4613 26.0584L96.4613 26.0584C100.275 22.1022 105.023 20.1241 110.706 20.1241L110.706 20.1241L110.706 20.1241C116.388 20.1241 121.137 22.1022 124.95 26.0584L124.95 26.0584L124.95 26.0584C128.764 30.0146 130.671 34.94 130.671 40.8347L130.671 40.8347L130.671 40.8347C130.671 46.7295 128.764 51.6351 124.95 55.5517L124.95 55.5517L124.95 55.5517C121.137 59.5079 116.388 61.486 110.706 61.486L110.706 61.486ZM110.706 51.6945L110.706 51.6945L110.706 51.6945C113.643 51.6945 116.045 50.6461 117.914 48.5493L117.914 48.5493L117.914 48.5493C119.783 46.4921 120.717 43.9206 120.717 40.8347L120.717 40.8347L120.717 40.8347C120.717 37.7489 119.783 35.1774 117.914 33.1202L117.914 33.1202L117.914 33.1202C116.045 31.0234 113.623 29.975 110.649 29.975L110.649 29.975L110.649 29.975C107.712 29.975 105.309 31.0234 103.441 33.1202L103.441 33.1202L103.441 33.1202C101.61 35.1774 100.695 37.7489 100.695 40.8347L100.695 40.8347L100.695 40.8347C100.695 43.9206 101.61 46.4921 103.441 48.5493L103.441 48.5493L103.441 48.5493C105.309 50.6461 107.731 51.6945 110.706 51.6945ZM161.678 46.7097L161.678 46.7097L161.678 20.4802L172.604 20.4802L172.604 61.0706L161.678 61.0706L161.678 57.3914L161.678 57.3914C159.046 59.8442 155.919 61.0706 152.296 61.0706L152.296 61.0706L152.296 61.0706C147.338 61.0706 143.562 59.5079 140.969 56.3826L140.969 56.3826L140.969 56.3826C138.337 53.2572 137.021 49.6768 137.021 45.6415L137.021 45.6415L137.021 20.4802L148.005 20.4802L148.005 42.7931L148.005 42.7931C148.005 45.4833 148.653 47.58 149.95 49.0834L149.95 49.0834L149.95 49.0834C151.247 50.5867 153.211 51.378 155.842 51.4571L155.842 51.4571L155.842 51.4571C158.131 51.2989 160.076 49.7164 161.678 46.7097ZM192.855 78.1614L181.929 78.102L181.929 21.7264L192.855 20.4802L192.855 23.744L192.855 23.744C195.792 21.5681 198.672 20.4802 201.494 20.4802L201.494 20.4802L201.494 20.4802C207.481 20.4802 212.23 22.5176 215.738 26.5925L215.738 26.5925L215.738 26.5925C219.285 30.6278 221.059 35.3554 221.059 40.7754L221.059 40.7754L221.059 40.7754C221.059 46.1954 219.285 50.923 215.738 54.9583L215.738 54.9583L215.738 54.9583C212.23 59.0332 207.481 61.0706 201.494 61.0706L201.494 61.0706L201.494 61.0706C197.566 60.7937 194.686 59.686 192.855 57.7474L192.855 57.7474L192.855 78.1614ZM192.855 37.0961L192.855 37.0961L192.855 43.6832L192.855 43.6832C193.389 48.2328 196.135 50.9032 201.093 51.6945L201.093 51.6945L201.093 51.6945C207.348 51.1802 210.876 47.8174 211.677 41.6062L211.677 41.6062L211.677 41.6062C211.41 34.0103 207.882 30.0739 201.093 29.797L201.093 29.797L201.093 29.797C196.135 30.6278 193.389 33.0608 192.855 37.0961ZM246.516 61.486L246.516 61.486C240.833 61.486 236.104 59.5079 232.328 55.5517L232.328 55.5517L232.328 55.5517C228.515 51.5956 226.608 46.6899 226.608 40.8347L226.608 40.8347L226.608 40.8347C226.608 34.94 228.515 30.0146 232.328 26.0584L232.328 26.0584L232.328 26.0584C236.104 22.1022 240.833 20.1241 246.516 20.1241L246.516 20.1241L246.516 20.1241C252.198 20.1241 256.947 22.1022 260.76 26.0584L260.76 26.0584L260.76 26.0584C264.574 30.0146 266.481 34.94 266.481 40.8347L266.481 40.8347L266.481 40.8347C266.481 46.7295 264.574 51.6351 260.76 55.5517L260.76 55.5517L260.76 55.5517C256.947 59.5079 252.198 61.486 246.516 61.486L246.516 61.486ZM246.516 51.6945L246.516 51.6945L246.516 51.6945C249.491 51.6945 251.893 50.6461 253.724 48.5493L253.724 48.5493L253.724 48.5493C255.593 46.4921 256.527 43.9206 256.527 40.8347L256.527 40.8347L256.527 40.8347C256.527 37.7489 255.593 35.1774 253.724 33.1202L253.724 33.1202L253.724 33.1202C251.893 31.0234 249.472 29.975 246.459 29.975L246.459 29.975L246.459 29.975C243.522 29.975 241.119 31.0234 239.251 33.1202L239.251 33.1202L239.251 33.1202C237.42 35.1774 236.505 37.7489 236.505 40.8347L236.505 40.8347L236.505 40.8347C236.505 43.9206 237.42 46.4921 239.251 48.5493L239.251 48.5493L239.251 48.5493C241.119 50.6461 243.541 51.6945 246.516 51.6945ZM284.73 35.1378L284.73 35.1378L284.73 61.0706L273.747 61.0706L273.747 21.7264L284.73 20.4802L284.73 24.1001L284.73 24.1001C287.171 21.7264 290.298 20.5395 294.112 20.5395L294.112 20.5395L294.112 20.5395C299.032 20.5395 302.808 22.0824 305.439 25.1682L305.439 25.1682L305.439 25.1682C308.3 22.0824 312.59 20.5395 318.311 20.5395L318.311 20.5395L318.311 20.5395C323.269 20.5395 327.064 22.0824 329.695 25.1682L329.695 25.1682L329.695 25.1682C332.289 28.2936 333.585 31.8938 333.585 35.9686L333.585 35.9686L333.585 61.0706L322.659 61.0706L322.659 38.7577L322.659 38.7577C322.659 36.0675 322.068 33.9708 320.885 32.4674L320.885 32.4674L320.885 32.4674C319.703 31.0036 317.796 30.2322 315.165 30.153L315.165 30.153L315.165 30.153C312.991 30.3113 311.122 31.7949 309.558 34.6037L309.558 34.6037L309.558 34.6037C309.406 35.4345 309.329 36.2851 309.329 37.1555L309.329 37.1555L309.329 61.0706L298.403 61.0706L298.403 38.7577L298.403 38.7577C298.403 36.0675 297.812 33.9708 296.629 32.4674L296.629 32.4674L296.629 32.4674C295.447 31.0036 293.54 30.2322 290.909 30.153L290.909 30.153L290.909 30.153C288.506 30.3113 286.447 31.9729 284.73 35.1378ZM348.288 32.2894L343.997 25.4056L343.997 25.4056C348.955 22.1615 354.695 20.5395 361.216 20.5395L361.216 20.5395L361.216 20.5395C365.907 20.5395 369.607 21.8846 372.315 24.5748L372.315 24.5748L372.315 24.5748C375.061 27.3046 376.434 31.3597 376.434 36.7401L376.434 36.7401L376.434 61.0706L365.507 61.0706L365.507 57.8661L365.507 57.8661C362.303 60.0025 359.424 61.0706 356.869 61.0706L356.869 61.0706L356.869 61.0706C351.682 61.0706 347.773 59.9233 345.141 57.6287L345.141 57.6287L345.141 57.6287C342.548 55.3342 341.251 52.1692 341.251 48.1339L341.251 48.1339L341.251 48.1339C341.251 44.336 342.491 40.9534 344.97 37.9863L344.97 37.9863L344.97 37.9863C347.41 35.0191 351.377 33.5356 356.869 33.5356L356.869 33.5356L356.869 33.5356C359.424 33.5356 362.303 34.3466 365.507 35.9686L365.507 35.9686L365.507 34.7224L365.507 34.7224C365.431 31.7553 363.333 30.1333 359.214 29.8563L359.214 29.8563L359.214 29.8563C354.523 29.8563 350.881 30.6673 348.288 32.2894L348.288 32.2894ZM365.507 48.9054L365.507 48.9054L365.507 44.336L365.507 44.336C364.477 42.2392 361.998 41.1908 358.07 41.1908L358.07 41.1908L358.07 41.1908C353.379 41.7447 350.9 43.6436 350.633 46.8877L350.633 46.8877L350.633 46.8877C350.9 50.0922 353.379 51.8329 358.07 52.1099L358.07 52.1099L358.07 52.1099C361.998 52.1099 364.477 51.0417 365.507 48.9054ZM397.2 35.3159L397.2 35.3159L397.2 61.0706L386.216 61.0706L386.216 21.7264L397.2 20.4802L397.2 24.1594L397.2 24.1594C399.831 21.7461 402.959 20.5395 406.582 20.5395L406.582 20.5395L406.582 20.5395C411.54 20.5395 415.315 22.0824 417.909 25.1682L417.909 25.1682L417.909 25.1682C420.502 28.2936 421.799 31.8938 421.799 35.9686L421.799 35.9686L421.799 61.0706L410.872 61.0706L410.872 38.7577L410.872 38.7577C410.872 36.0675 410.224 33.9708 408.927 32.4674L408.927 32.4674L408.927 32.4674C407.592 31.0036 405.609 30.2322 402.978 30.153L402.978 30.153L402.978 30.153C400.728 30.3113 398.802 32.0322 397.2 35.3159ZM441.936 61.0706L431.009 61.0706L431.009 20.4802L441.936 20.4802L441.936 61.0706ZM430.609 10.8073L430.609 10.8073L430.609 10.8073C430.609 12.4293 431.124 13.7744 432.153 14.8426L432.153 14.8426L432.153 14.8426C433.221 15.9108 434.67 16.4449 436.501 16.4449L436.501 16.4449L436.501 16.4449C438.294 16.4449 439.724 15.9108 440.792 14.8426L440.792 14.8426L440.792 14.8426C441.821 13.7744 442.336 12.4293 442.336 10.8073L442.336 10.8073L442.336 10.8073C442.336 9.18525 441.821 7.82037 440.792 6.71264L440.792 6.71264L440.792 6.71264C439.724 5.6049 438.255 5.05104 436.387 5.05104L436.387 5.05104L436.387 5.05104C434.632 5.05104 433.221 5.6049 432.153 6.71264L432.153 6.71264L432.153 6.71264C431.124 7.82037 430.609 9.18525 430.609 10.8073ZM456.524 32.2894L452.233 25.4056L452.233 25.4056C457.191 22.1615 462.931 20.5395 469.452 20.5395L469.452 20.5395L469.452 20.5395C474.144 20.5395 477.862 21.8846 480.608 24.5748L480.608 24.5748L480.608 24.5748C483.316 27.3046 484.67 31.3597 484.67 36.7401L484.67 36.7401L484.67 61.0706L473.743 61.0706L473.743 57.8661L473.743 57.8661C470.578 60.0025 467.717 61.0706 465.162 61.0706L465.162 61.0706L465.162 61.0706C459.937 61.0706 456.028 59.9233 453.434 57.6287L453.434 57.6287L453.434 57.6287C450.803 55.3342 449.487 52.1692 449.487 48.1339L449.487 48.1339L449.487 48.1339C449.487 44.336 450.727 40.9534 453.206 37.9863L453.206 37.9863L453.206 37.9863C455.647 35.0191 459.632 33.5356 465.162 33.5356L465.162 33.5356L465.162 33.5356C467.679 33.5356 470.539 34.3466 473.743 35.9686L473.743 35.9686L473.743 34.7224L473.743 34.7224C473.705 31.7553 471.626 30.1333 467.507 29.8563L467.507 29.8563L467.507 29.8563C462.816 29.8563 459.155 30.6673 456.524 32.2894L456.524 32.2894ZM473.743 48.9054L473.743 48.9054L473.743 44.336L473.743 44.336C472.713 42.2392 470.234 41.1908 466.306 41.1908L466.306 41.1908L466.306 41.1908C461.615 41.7447 459.136 43.6436 458.869 46.8877L458.869 46.8877L458.869 46.8877C459.136 50.0922 461.615 51.8329 466.306 52.1099L466.306 52.1099L466.306 52.1099C470.234 52.1099 472.713 51.0417 473.743 48.9054Z" fill="#000000" fill-rule="nonzero" opacity="1" stroke="none"/>
</g>
<g id="c3a0a99d-5b99-a49f-d46f-4168a2d07e26" vectornator:layerName="c3a0a99d-5b99-a49f-d46f-4168a2d07e26"/>
</svg>
