<?xml version="1.0" encoding="UTF-8" standalone="no"?>
<!DOCTYPE svg PUBLIC "-//W3C//DTD SVG 1.1//EN" "http://www.w3.org/Graphics/SVG/1.1/DTD/svg11.dtd">
<!-- Created with Vectornator (http://vectornator.io/) -->
<svg height="100%" stroke-miterlimit="10" style="fill-rule:nonzero;clip-rule:evenodd;stroke-linecap:round;stroke-linejoin:round;" version="1.1" viewBox="0 0 1024 1024" width="100%" xml:space="preserve" xmlns="http://www.w3.org/2000/svg" xmlns:xlink="http://www.w3.org/1999/xlink">
<defs/>
<clipPath id="ArtboardFrame">
<rect height="1024" width="1024" x="0" y="0"/>
</clipPath>
<g clip-path="url(#ArtboardFrame)" id="Calque-1">
<path d="M511.949 1024.67C649.122 1024.67 777.721 972 874.477 875.241C971.233 778.482 1023.9 649.878 1023.9 512.7C1023.9 375.523 971.233 246.919 874.477 150.159C777.721 53.4001 649.122 0.733758 511.949 0.733758C374.776 0.733758 246.176 53.4002 149.42 150.159C52.6646 246.919 0 375.522 0 512.7C0 649.878 52.6646 778.482 149.42 875.241C246.176 972 374.776 1024.67 511.949 1024.67ZM541.343 937.706C531.545 938.93 521.747 938.93 511.949 938.93C498.476 938.93 485.004 937.706 471.532 936.481C427.441 867.892 394.372 794.404 374.776 717.242L591.558 717.242C598.907 735.614 612.379 752.761 628.301 763.784C607.48 825.024 578.086 882.59 541.343 937.706ZM657.695 913.21C680.965 870.342 699.337 827.474 714.034 782.156C749.552 774.807 777.721 750.311 791.194 717.242L885.5 717.242C836.51 806.652 754.451 876.466 657.695 913.21ZM936.94 512.7C936.94 553.118 930.816 592.312 921.018 630.281L788.744 630.281C781.396 614.358 769.148 599.661 754.451 588.638C756.9 561.692 758.125 534.746 758.125 507.801C758.125 469.832 755.676 431.863 750.777 395.119L919.793 395.119C932.041 431.863 936.94 472.282 936.94 512.7ZM885.5 308.158L736.08 308.158C720.158 240.795 696.887 177.105 665.044 115.865C758.125 151.384 836.51 221.198 885.5 308.158ZM672.392 507.801C672.392 528.622 671.167 549.444 669.943 570.266C635.649 577.614 607.48 599.661 594.008 630.281L357.629 630.281C352.73 593.537 349.056 555.568 349.056 518.824C349.056 495.553 350.281 472.282 352.73 449.01C384.574 442.886 410.294 422.065 426.216 395.119L665.044 395.119C669.943 431.863 672.392 469.832 672.392 507.801ZM480.105 88.9193C491.128 87.6945 502.151 87.6945 511.949 87.6945C524.196 87.6945 536.444 87.6945 548.692 88.9193C592.783 157.508 625.851 230.996 645.447 308.158L432.34 308.158C424.991 287.337 411.519 268.965 394.372 255.492C416.418 196.702 444.587 141.586 480.105 88.9193ZM363.753 113.415C342.932 152.609 324.561 194.252 309.864 235.895C271.896 243.244 241.277 271.414 229.03 306.934L139.622 306.934C187.388 219.973 266.997 150.159 363.753 113.415ZM86.9578 512.7C86.9578 472.282 93.0816 431.863 104.104 395.119L237.603 395.119C244.952 408.592 255.974 420.84 268.222 430.638C265.772 460.034 263.323 489.429 263.323 518.824C263.323 556.793 265.772 593.537 270.671 630.281L104.104 630.281C91.8568 592.312 86.9578 553.118 86.9578 512.7ZM285.369 716.017C301.29 782.156 324.561 847.07 356.405 908.31C263.323 871.566 186.163 802.978 138.398 716.017C138.398 716.017 285.369 716.017 285.369 716.017Z" fill="#000000" fill-rule="nonzero" opacity="1" stroke="none"/>
</g>
</svg>
